<?xml version="1.0" standalone="no"?><!DOCTYPE svg PUBLIC "-//W3C//DTD SVG 1.1//EN" "http://www.w3.org/Graphics/SVG/1.1/DTD/svg11.dtd"><svg t="1705942252666" class="icon" viewBox="0 0 1024 1024" version="1.1" xmlns="http://www.w3.org/2000/svg" p-id="6338" xmlns:xlink="http://www.w3.org/1999/xlink" width="200" height="200"><path d="M192 608H96v320H192A96.64 96.64 0 0 0 288 832a94.08 94.08 0 0 0-26.88-64 94.08 94.08 0 0 0 26.88-64A96.64 96.64 0 0 0 192 608z m0 256h-32v-64H192a32 32 0 0 1 0 64z m0-128h-32v-64H192a32 32 0 0 1 0 64z m462.08 0c-26.88-13.44-46.08-23.68-46.08-36.48a36.48 36.48 0 0 1 7.68-22.4 31.36 31.36 0 0 1 24.32-5.12h90.88a90.88 90.88 0 0 0-90.88-64 94.08 94.08 0 0 0-71.68 28.16A99.84 99.84 0 0 0 544 704c0 51.84 47.36 74.88 81.92 92.16s46.08 23.68 46.08 36.48a40.96 40.96 0 0 1-8.96 23.68 28.16 28.16 0 0 1-23.04 7.68H549.76a96 96 0 0 0 21.76 37.76 92.8 92.8 0 0 0 68.48 26.24 94.08 94.08 0 0 0 68.48-26.24A104.32 104.32 0 0 0 736 832c0-52.48-47.36-76.16-81.92-93.44z m305.92-64v-64h-192v320h192v-64h-128v-64h64v-64h-64v-64z m-544-64A96.64 96.64 0 0 0 320 704v224h64v-64h64v64h64V704a96.64 96.64 0 0 0-96-96z m32 192H384V704a32 32 0 0 1 64 0zM480 448A96.64 96.64 0 0 0 384 352a104.96 104.96 0 0 0-32 5.76V320a32 32 0 0 1 32-32h90.24A96 96 0 0 0 288 320v128a96 96 0 0 0 192 0z m-128 0a32 32 0 1 1 32 32 32 32 0 0 1-32-32zM640 544h64v-320h-64v128H576v-128H512V384a32 32 0 0 0 32 32H640z" p-id="6339"></path><path d="M192 544V192a32 32 0 0 1 32-32h512V256H832v288h64v-320l-128-128H224A96 96 0 0 0 128 192v352z" p-id="6340"></path></svg>