<svg class="icon" viewBox="0 0 1536 1024" version="1.1" xmlns="http://www.w3.org/2000/svg">
    <path d="M262.963 938.803a322.56 322.56 0 0 0 158.515-39.321c39.322-22.119 72.5-50.381 97.076-84.788V921.6h92.16V513.638c0-73.728-19.661-131.481-56.525-173.26-44.237-47.924-110.592-71.27-201.523-71.27-76.186 0-136.397 14.745-183.092 44.236-51.61 31.949-84.787 82.33-98.304 148.685l97.076 7.373c9.83-40.55 30.72-71.27 63.897-90.932 29.491-19.66 67.584-28.262 114.279-28.262 110.592 0 165.888 52.838 165.888 159.744v33.178l-152.372 2.457c-95.846 1.229-169.574 19.661-221.184 54.067-58.982 36.864-87.244 90.932-87.244 163.43 0 51.61 19.66 94.618 58.982 127.796 38.093 31.949 88.474 47.923 152.371 47.923z m20.89-77.414c-39.322 0-71.27-9.83-95.847-28.263a87.347 87.347 0 0 1-35.635-72.499c0-92.16 71.27-138.854 213.811-141.312l146.228-2.457v54.067c0 49.152-23.348 93.389-68.813 131.481a240.333 240.333 0 0 1-159.744 58.983z m511.18 60.211l93.39-245.76h403.046l93.389 245.76h109.363L1148.928 44.237h-116.736L686.899 921.6h108.135z m464.487-330.547H920.371l168.346-438.682h4.915l165.888 438.682z"></path>
</svg>